<svg id="Layer_1" data-name="Layer 1" xmlns="http://www.w3.org/2000/svg" viewBox="0 0 290 180.43"><defs><style>.cls-1{fill:#fff;}</style></defs><title>SpeakUpDC Identity V_White</title><path class="cls-1" d="M514.78,369.29c-3.42,1.92-7.83,2.88-13.26,2.88a25.44,25.44,0,0,1-10.17-2,22.54,22.54,0,0,1-7.78-5.48,24.54,24.54,0,0,1-5-8.27,31.64,31.64,0,0,1-.07-20.55,24.54,24.54,0,0,1,4.84-8.21,21.77,21.77,0,0,1,7.79-5.47,26.67,26.67,0,0,1,10.52-2,24.13,24.13,0,0,1,12.48,3.23,31.45,31.45,0,0,1,9.4,8.55L540,315.5a38.72,38.72,0,0,0-17.54-14.17,61.36,61.36,0,0,0-22.58-4.06A51.39,51.39,0,0,0,480.06,301a45.43,45.43,0,0,0-15.43,10.38,46.39,46.39,0,0,0-9.95,15.71,54,54,0,0,0-3.51,19.71,52.9,52.9,0,0,0,3.58,19.78,44.44,44.44,0,0,0,25.31,25.53,52.13,52.13,0,0,0,19.78,3.64q25.8,0,41.66-19.77l-16.69-15.71A35.43,35.43,0,0,1,514.78,369.29Zm-171-64.88a17.27,17.27,0,0,0-6.09-3.43,25.19,25.19,0,0,0-8-1.19H307.43V355.9h14.15V336.18h8.5a22.09,22.09,0,0,0,7.65-1.27,16.72,16.72,0,0,0,6-3.68,17.23,17.23,0,0,0,3.92-5.8,19.2,19.2,0,0,0,1.43-7.57,20.46,20.46,0,0,0-1.39-7.81A15.06,15.06,0,0,0,343.74,304.41Zm-10.63,18.52a6,6,0,0,1-4.66,1.88h-6.87V311.24h6.78a6.07,6.07,0,0,1,4.83,1.88,7.35,7.35,0,0,1,1.63,5A6.88,6.88,0,0,1,333.11,322.93ZM411.3,283.8V268.5H378.9V257.1h24.9V242.7H378.9V232.4h32.4V217.1H361.2v66.7Zm-155.8,16v34.86a24.89,24.89,0,0,0,1.72,9.52,19.54,19.54,0,0,0,4.86,7.12,21.84,21.84,0,0,0,7.48,4.46,28.11,28.11,0,0,0,9.49,1.55,27.75,27.75,0,0,0,9.45-1.55,21.56,21.56,0,0,0,7.44-4.5,19.86,19.86,0,0,0,4.86-7.16,24.66,24.66,0,0,0,1.72-9.44V299.79H287.88v33.55a12.45,12.45,0,0,1-2,7.32q-2,2.89-6.87,2.9t-6.91-2.86a12.19,12.19,0,0,1-2.09-7.36V299.79ZM284.6,269a8.28,8.28,0,0,1-2.5.85,15,15,0,0,1-2.7.25,21.47,21.47,0,0,1-9.9-2.3,28.62,28.62,0,0,1-7.3-5.1l-10.7,12.9A34.64,34.64,0,0,0,263,282.75q6.75,2.65,16.75,2.65a35.23,35.23,0,0,0,10.55-1.55,27.29,27.29,0,0,0,8.6-4.35,21.45,21.45,0,0,0,5.8-6.7,17.34,17.34,0,0,0,2.15-8.5,20.11,20.11,0,0,0-1.8-9,19.32,19.32,0,0,0-4.6-6.1,22.93,22.93,0,0,0-6.3-3.9q-3.5-1.46-6.9-2.55l-3.2-1-3.95-1.35A16.59,16.59,0,0,1,276.9,239a6.61,6.61,0,0,1-2-1.9,4.5,4.5,0,0,1-.75-2.6,4.09,4.09,0,0,1,.65-2.35,5.08,5.08,0,0,1,1.7-1.55,8.57,8.57,0,0,1,2.35-.9,11.53,11.53,0,0,1,2.6-.3,19.38,19.38,0,0,1,7.8,1.65,37,37,0,0,1,7.3,4.25l9-11.4a20.71,20.71,0,0,0-3.2-2.7,28,28,0,0,0-5.1-2.8,39.1,39.1,0,0,0-7-2.2,40.62,40.62,0,0,0-8.9-.9A34.12,34.12,0,0,0,270.2,217a22.83,22.83,0,0,0-8.05,4.6,19.78,19.78,0,0,0-4.95,6.9,21.43,21.43,0,0,0-1.7,8.55,15.63,15.63,0,0,0,1.55,7.15,18,18,0,0,0,4.05,5.3,26.19,26.19,0,0,0,5.65,3.85,42.74,42.74,0,0,0,6.25,2.6l3.7,1.2a36,36,0,0,1,7.75,3.4,5,5,0,0,1,2.65,4.3,4.41,4.41,0,0,1-.7,2.6A5.23,5.23,0,0,1,284.6,269ZM255.5,393.35h93.55V371.89H255.5ZM497.4,264.2l6.3-7.4,16.3,27h21.5l-25.7-41L538,217.1H517.3l-19.9,25v-25H479.7v66.7h17.7Zm-60.54,46.95a44,44,0,0,0-15.92-8.55,68.21,68.21,0,0,0-20-2.81H365v93.56h35.77a66.71,66.71,0,0,0,19.92-2.88,44,44,0,0,0,16-8.69,40.8,40.8,0,0,0,10.59-14.45,49.33,49.33,0,0,0,3.86-20.27q0-12.19-3.79-21.18A38.87,38.87,0,0,0,436.86,311.15Zm-18,53.37q-6.68,6.94-18.87,7h-10.1V321.53H400a31.68,31.68,0,0,1,11.36,1.83,21.28,21.28,0,0,1,7.93,5.12,20.85,20.85,0,0,1,4.7,7.85,31.84,31.84,0,0,1,1.54,10.17Q425.5,357.59,418.84,364.52Zm15.45-96H456l4.57,15.3h19.1l-23.6-66.7H435.8l-24.5,66.7h18.3Zm11-35.9,6.42,21.5h-13Zm-90.6-9.85a21.28,21.28,0,0,0-7.45-4.2,30.63,30.63,0,0,0-9.75-1.45H310.3v66.7h17.3V261.6H338a27.17,27.17,0,0,0,9.35-1.55,20.32,20.32,0,0,0,7.3-4.5,21.31,21.31,0,0,0,4.8-7.1,23.54,23.54,0,0,0,1.75-9.25,25.11,25.11,0,0,0-1.7-9.55A18.24,18.24,0,0,0,354.7,222.75Zm-13,22.65a7.35,7.35,0,0,1-5.7,2.3h-8.4V231.1h8.3a7.4,7.4,0,0,1,5.9,2.3,9,9,0,0,1,2,6.1A8.41,8.41,0,0,1,341.7,245.4Z" transform="translate(-251.5 -215.3)"/></svg>