<svg id="Layer_1" data-name="Layer 1" xmlns="http://www.w3.org/2000/svg" viewBox="0 0 493.9 70.2"><defs><style>.cls-1{fill:#fff;}</style></defs><title>SpeakUpDC Identity H_White</title><path class="cls-1" d="M276.9,323.7V312.3h24.9V297.9H276.9V287.6h32.4V272.3H259.2V339h50.1V323.7ZM444.19,309a15.55,15.55,0,0,0,5.34,3.18,19.85,19.85,0,0,0,6.76,1.11,19.59,19.59,0,0,0,6.73-1.11,15.49,15.49,0,0,0,5.31-3.2,14.22,14.22,0,0,0,3.47-5.11,17.77,17.77,0,0,0,1.22-6.73V272.3H462.59v23.92a8.86,8.86,0,0,1-1.46,5.22q-1.45,2.07-4.9,2.07t-4.92-2.05a8.6,8.6,0,0,1-1.49-5.24V272.3H439.5v24.85a17.94,17.94,0,0,0,1.22,6.79A14,14,0,0,0,444.19,309ZM252.7,278a21.28,21.28,0,0,0-7.45-4.2,30.63,30.63,0,0,0-9.75-1.45H208.3V339h17.3V316.8H236a27.17,27.17,0,0,0,9.35-1.55,20.32,20.32,0,0,0,7.3-4.5,21.31,21.31,0,0,0,4.8-7.1,23.54,23.54,0,0,0,1.75-9.25,25.11,25.11,0,0,0-1.7-9.55A18.24,18.24,0,0,0,252.7,278Zm-13,22.65a7.35,7.35,0,0,1-5.7,2.3h-8.4V286.3h8.3a7.4,7.4,0,0,1,5.9,2.3,9,9,0,0,1,2,6.1A8.41,8.41,0,0,1,239.7,300.6Zm-41.3,3.85a22.93,22.93,0,0,0-6.3-3.9q-3.49-1.46-6.9-2.55l-3.2-1-3.95-1.35a16.59,16.59,0,0,1-3.15-1.45,6.61,6.61,0,0,1-2.05-1.9,4.5,4.5,0,0,1-.75-2.6,4.09,4.09,0,0,1,.65-2.35,5.08,5.08,0,0,1,1.7-1.55,8.57,8.57,0,0,1,2.35-.9,11.53,11.53,0,0,1,2.6-.3,19.38,19.38,0,0,1,7.8,1.65,37,37,0,0,1,7.3,4.25l9-11.4a20.71,20.71,0,0,0-3.2-2.7,28,28,0,0,0-5.1-2.8,39.1,39.1,0,0,0-7-2.2,40.62,40.62,0,0,0-8.9-.9,34.12,34.12,0,0,0-11.1,1.65,22.83,22.83,0,0,0-8,4.6,19.78,19.78,0,0,0-5,6.9,21.43,21.43,0,0,0-1.7,8.55,15.63,15.63,0,0,0,1.55,7.15,18,18,0,0,0,4,5.3,26.19,26.19,0,0,0,5.65,3.85,42.74,42.74,0,0,0,6.25,2.6l3.7,1.2a36,36,0,0,1,7.75,3.4,5,5,0,0,1,2.65,4.3,4.41,4.41,0,0,1-.7,2.6,5.23,5.23,0,0,1-1.8,1.6,8.28,8.28,0,0,1-2.5.85,15,15,0,0,1-2.7.25,21.47,21.47,0,0,1-9.9-2.3,28.62,28.62,0,0,1-7.3-5.1l-10.7,12.9A34.64,34.64,0,0,0,161,338q6.75,2.66,16.75,2.65a35.23,35.23,0,0,0,10.55-1.55,27.29,27.29,0,0,0,8.6-4.35,21.45,21.45,0,0,0,5.8-6.7,17.34,17.34,0,0,0,2.15-8.5,20.11,20.11,0,0,0-1.8-8.95A19.32,19.32,0,0,0,198.4,304.45ZM333.8,272.3,309.3,339h18.3l4.69-15.3H354L358.6,339h19.1l-23.6-66.7Zm2.91,37,6.59-21.5,6.42,21.5Zm165.7-33.71a12.48,12.48,0,0,0-4.35-2.44,17.7,17.7,0,0,0-5.68-.85H476.52v40h10.09V298.24h6.06a15.86,15.86,0,0,0,5.45-.9,12,12,0,0,0,4.26-2.62,12.52,12.52,0,0,0,2.8-4.14,13.79,13.79,0,0,0,1-5.4,14.59,14.59,0,0,0-1-5.56A10.85,10.85,0,0,0,502.41,275.59Zm-7.58,13.21a4.31,4.31,0,0,1-3.33,1.34h-4.89v-9.68h4.84a4.34,4.34,0,0,1,3.44,1.34,5.28,5.28,0,0,1,1.16,3.56A4.92,4.92,0,0,1,494.83,288.8ZM631.5,315.4a25.45,25.45,0,0,1-7.15,6.45,19.18,19.18,0,0,1-9.45,2,18.17,18.17,0,0,1-7.25-1.4,15.94,15.94,0,0,1-5.55-3.9,17.39,17.39,0,0,1-3.55-5.9,22.52,22.52,0,0,1,0-14.65A17.49,17.49,0,0,1,602,292.2a15.4,15.4,0,0,1,5.55-3.9,19.1,19.1,0,0,1,7.5-1.4,17.23,17.23,0,0,1,8.9,2.3,22.46,22.46,0,0,1,6.7,6.1l11.7-11.8a27.53,27.53,0,0,0-12.5-10.1,43.84,43.84,0,0,0-16.1-2.9,36.4,36.4,0,0,0-14.1,2.65,32.23,32.23,0,0,0-11,7.4,33,33,0,0,0-7.1,11.2A38.47,38.47,0,0,0,579,305.8a37.79,37.79,0,0,0,2.55,14.1,32.49,32.49,0,0,0,7.1,11,32.12,32.12,0,0,0,11,7.2,37.14,37.14,0,0,0,14.1,2.6q18.39,0,29.7-14.1Zm-62.7-35a31.37,31.37,0,0,0-11.35-6.1,48.74,48.74,0,0,0-14.25-2H517.6V339h25.5A47.56,47.56,0,0,0,557.3,337a31.45,31.45,0,0,0,11.4-6.2,29.21,29.21,0,0,0,7.55-10.3A35.21,35.21,0,0,0,579,306a38.68,38.68,0,0,0-2.7-15.1A27.65,27.65,0,0,0,568.8,280.4ZM556,318.45q-4.76,4.95-13.45,4.95h-7.2V287.8h7.2a22.63,22.63,0,0,1,8.1,1.3,15.25,15.25,0,0,1,5.65,3.65,15,15,0,0,1,3.35,5.6,22.61,22.61,0,0,1,1.1,7.25Q560.7,313.51,556,318.45ZM436,272.3H415.3l-19.9,25v-25H377.7V339h17.7V319.4l6.3-7.4L418,339h21.5l-25.7-41Zm3.5,66.7h66.7V323.7H439.5Z" transform="translate(-149.5 -270.5)"/></svg>